# xmcd
#
# Track frame offsets: 
#        150
#        16075
#        33505
#        51302
#        66920
#        86108
#        99967
#        119447
#        135181
#
# Disc length: 2160 seconds
#
# Revision: 0
# Processed by: cddbd v1.5.2PL0 Copyright (c) Steve Scherf et al.
# Submitted via: ExactAudioCopy v1.2
#
DISCID=6f086e09
DTITLE=Charles Bradley - Changes (The Instrumentals)
DYEAR=2017
DGENRE=Soul
TTITLE0=Revelations (Instrumental)
TTITLE1=Ain't Gonna Give It Up (Instrumental)
TTITLE2=Nobody but You (Instrumental)
TTITLE3=Things We Do for Love (Instrumental)
TTITLE4=Slow Love (Instrumental)
TTITLE5=Good to Be Back Home (Instrumental)
TTITLE6=Crazy for Your Love (Instrumental)
TTITLE7=You Think I Don't Know (But I Know) (Instrumental)
TTITLE8=Changes (Instrumental)
EXTD=
EXTT0=
EXTT1=
EXTT2=
EXTT3=
EXTT4=
EXTT5=
EXTT6=
EXTT7=
EXTT8=
PLAYORDER=
